<svg width="369.000000" height="245.000000" viewBox="0 0 369 245" fill="none" xmlns="http://www.w3.org/2000/svg" xmlns:xlink="http://www.w3.org/1999/xlink">
	<desc>
			Created with Pixso.
	</desc>
	<defs>
		<filter id="filter_238_205_dd" x="-0.516602" y="144.924805" width="119.583496" height="32.066895" filterUnits="userSpaceOnUse" color-interpolation-filters="sRGB">
			<feFlood flood-opacity="0" result="BackgroundImageFix"/>
			<feColorMatrix in="SourceAlpha" type="matrix" values="0 0 0 0 0 0 0 0 0 0 0 0 0 0 0 0 0 0 127 0" result="hardAlpha"/>
			<feOffset dx="0" dy="4.51684"/>
			<feGaussianBlur stdDeviation="1.50561"/>
			<feComposite in2="hardAlpha" operator="out" k2="-1" k3="1"/>
			<feColorMatrix type="matrix" values="0 0 0 0 0 0 0 0 0 0 0 0 0 0 0 0 0 0 0.078 0"/>
			<feBlend mode="normal" in2="BackgroundImageFix" result="effect_dropShadow_1"/>
			<feBlend mode="normal" in="SourceGraphic" in2="effect_dropShadow_1" result="shape"/>
		</filter>
		<linearGradient id="paint_linear_238_194_0" x1="307.534363" y1="235.956726" x2="302.910461" y2="106.701164" gradientUnits="userSpaceOnUse">
			<stop stop-color="#0D9AFF" stop-opacity="0.011765"/>
			<stop offset="1.000000" stop-color="#0D9AFF" stop-opacity="0.121569"/>
		</linearGradient>
		<linearGradient id="paint_linear_238_195_0" x1="260.619263" y1="146.524445" x2="375.416534" y2="116.805634" gradientUnits="userSpaceOnUse">
			<stop offset="0.158406" stop-color="#A5BDFF" stop-opacity="0.458824"/>
			<stop offset="1.000000" stop-color="#A5BDFF" stop-opacity="0.000000"/>
		</linearGradient>
		<linearGradient id="paint_linear_238_200_0" x1="63.302414" y1="235.956726" x2="58.678482" y2="106.701164" gradientUnits="userSpaceOnUse">
			<stop stop-color="#0D9AFF" stop-opacity="0.011765"/>
			<stop offset="1.000000" stop-color="#0D9AFF" stop-opacity="0.121569"/>
		</linearGradient>
		<linearGradient id="paint_linear_238_201_0" x1="16.387810" y1="146.524445" x2="131.185074" y2="116.805634" gradientUnits="userSpaceOnUse">
			<stop offset="0.158406" stop-color="#A5BDFF" stop-opacity="0.458824"/>
			<stop offset="1.000000" stop-color="#A5BDFF" stop-opacity="0.000000"/>
		</linearGradient>
		<linearGradient id="paint_linear_238_203_0" x1="-25899.132812" y1="-209.000000" x2="-25969.095703" y2="-210.000000" gradientUnits="userSpaceOnUse">
			<stop stop-color="#0146FE"/>
			<stop offset="1.000000" stop-color="#0146FE" stop-opacity="0.000000"/>
		</linearGradient>
		<linearGradient id="paint_linear_238_204_0" x1="26258.156250" y1="-195.000000" x2="26328.119141" y2="-196.000000" gradientUnits="userSpaceOnUse">
			<stop stop-color="#0146FE"/>
			<stop offset="1.000000" stop-color="#0146FE" stop-opacity="0.000000"/>
		</linearGradient>
	</defs>
	<path id="Vector" d="M302.09 170.82L253.05 142.49C250.03 140.75 250.42 137.71 253.88 135.71L301.23 108.36C304.72 106.35 309.97 106.13 312.97 107.87L362.01 136.2C365.03 137.94 364.64 140.98 361.18 142.98L313.82 170.33C310.34 172.34 305.09 172.57 302.09 170.82Z" fill="url(#paint_linear_238_194_0)" fill-opacity="1.000000" fill-rule="nonzero"/>
	<path id="Vector" d="M307.22 159.29C304.81 159.29 302.51 158.77 300.69 157.72L251.65 129.39C249.48 128.14 248.23 126.18 248.23 124.03C248.23 121.63 249.78 119.36 252.49 117.78L299.84 90.43C304.22 87.9 310.47 87.69 314.36 89.95L363.4 118.28C365.58 119.53 366.83 121.49 366.83 123.64C366.83 126.04 365.28 128.33 362.57 129.89L315.22 157.24C312.87 158.6 309.97 159.29 307.2 159.29L307.22 159.29ZM303.48 152.9C305.64 154.15 309.83 153.93 312.43 152.42L359.78 125.07C360.97 124.39 361.26 123.76 361.26 123.65C361.24 123.62 361.09 123.39 360.62 123.12L311.58 94.79C309.42 93.54 305.24 93.77 302.63 95.28L255.28 122.63C254.08 123.31 253.8 123.93 253.8 124.05C253.81 124.08 253.97 124.32 254.44 124.57L303.48 152.9Z" fill="url(#paint_linear_238_195_0)" fill-opacity="1.000000" fill-rule="evenodd"/>
	<path id="Vector" d="M307.41 99.74C313.97 99.74 319.28 94.43 319.28 87.87C319.28 81.31 313.97 76 307.41 76C300.85 76 295.53 81.31 295.53 87.87C295.53 94.43 300.85 99.74 307.41 99.74ZM315.72 102.71L314.17 102.71C312.11 103.66 309.82 104.2 307.41 104.2C305 104.2 302.71 103.66 300.64 102.71L299.1 102.71C292.21 102.71 286.63 108.3 286.63 115.18L286.63 119.04C286.63 121.5 288.62 123.49 291.08 123.49L323.73 123.49C326.19 123.49 328.19 121.5 328.19 119.04L328.19 115.18C328.19 108.3 322.6 102.71 315.72 102.71Z" fill="#9DB8FF" fill-opacity="1.000000" fill-rule="nonzero"/>
	<path id="Vector" d="M57.85 170.82L8.81 142.49C5.8 140.75 6.18 137.71 9.65 135.71L57 108.36C60.48 106.35 65.74 106.13 68.74 107.87L117.78 136.2C120.79 137.94 120.41 140.98 116.94 142.98L69.59 170.33C66.11 172.34 60.85 172.57 57.85 170.82Z" fill="url(#paint_linear_238_200_0)" fill-opacity="1.000000" fill-rule="nonzero"/>
	<path id="Vector" d="M62.98 159.29C60.58 159.29 58.28 158.77 56.46 157.72L7.42 129.39C5.25 128.14 4 126.18 4 124.03C4 121.63 5.54 119.36 8.26 117.78L55.61 90.43C59.99 87.9 66.24 87.69 70.13 89.95L119.17 118.28C121.35 119.53 122.6 121.49 122.6 123.64C122.6 126.04 121.05 128.33 118.33 129.89L70.98 157.24C68.64 158.6 65.74 159.29 62.97 159.29L62.98 159.29ZM59.25 152.9C61.41 154.15 65.6 153.93 68.2 152.42L115.55 125.07C116.74 124.39 117.03 123.76 117.03 123.65C117.01 123.62 116.86 123.39 116.39 123.12L67.35 94.79C65.19 93.54 61.01 93.77 58.39 95.28L11.04 122.63C9.85 123.31 9.57 123.93 9.57 124.05C9.58 124.08 9.74 124.32 10.21 124.57L59.25 152.9Z" fill="url(#paint_linear_238_201_0)" fill-opacity="1.000000" fill-rule="evenodd"/>
	<path id="Arrow 2" d="M209.29 111.05L204.55 106.21C204.08 105.72 204.08 104.97 204.57 104.5C205.05 104.02 205.8 104.03 206.28 104.52L213.06 111.45C213.54 111.93 213.53 112.68 213.05 113.16L206.15 119.92C205.66 120.39 204.91 120.38 204.44 119.9C203.96 119.41 203.97 118.66 204.45 118.19L209.27 113.47L146.85 112.7L146.87 110.28L209.29 111.05Z" fill="url(#paint_linear_238_203_0)" fill-opacity="1.000000" fill-rule="evenodd"/>
	<path id="Arrow 3" d="M149.77 128.8L154.51 123.96C154.98 123.48 154.98 122.73 154.49 122.25C154.01 121.78 153.26 121.79 152.78 122.27L146 129.2C145.52 129.69 145.53 130.44 146.01 130.92L152.91 137.67C153.39 138.15 154.15 138.14 154.62 137.65C155.1 137.17 155.09 136.42 154.61 135.94L149.79 131.22L212.21 130.44L212.19 128.02L149.77 128.8Z" fill="url(#paint_linear_238_204_0)" fill-opacity="1.000000" fill-rule="evenodd"/>
	<g filter="url(#filter_238_205_dd)">
		<rect id="Frame 1321316609" rx="11.516842" width="110.550522" height="23.033684" transform="translate(4.000000 144.924805)" fill="#FFFFFF" fill-opacity="1.000000"/>
		<g opacity="0.800000">
			<path id="Lingvanex bot" d="M21.72 151.47C21.72 152.02 21.25 152.47 20.66 152.47C20.07 152.47 19.58 152.02 19.58 151.47C19.58 150.91 20.07 150.46 20.66 150.46C21.25 150.46 21.72 150.91 21.72 151.47ZM18.31 161.44L11.8 161.44L11.8 150.97L13.7 150.97L13.7 159.85L18.31 159.85L18.31 161.44ZM87.03 161.44L85.21 161.44L85.21 150.97L87.06 150.97L87.06 154.88L87.14 154.88C87.42 154.32 88 153.48 89.38 153.48C91.2 153.48 92.62 154.9 92.62 157.52C92.62 160.11 91.24 161.57 89.39 161.57C88.04 161.57 87.43 160.77 87.14 160.2L87.03 160.2L87.03 161.44ZM105.04 153.59L106.59 153.59L106.59 155.02L105.04 155.02L105.04 159.08C105.04 159.82 105.41 159.99 105.88 159.99C106.11 159.99 106.32 159.94 106.42 159.92L106.73 161.36C106.53 161.43 106.17 161.53 105.64 161.55C104.25 161.59 103.18 160.86 103.19 159.38L103.19 155.02L102.07 155.02L102.07 153.59L103.19 153.59L103.19 151.7L105.04 151.7L105.04 153.59ZM26.85 155.05C25.87 155.05 25.19 155.7 25.19 156.84L25.19 161.44L23.34 161.44L23.34 153.59L25.1 153.59L25.1 154.92L25.2 154.92C25.55 154.05 26.36 153.48 27.54 153.48C29.16 153.48 30.23 154.56 30.23 156.44L30.23 161.44L28.38 161.44L28.38 156.72C28.38 155.68 27.8 155.05 26.85 155.05ZM39.07 161.56C39.07 163.57 37.51 164.54 35.38 164.54C33.38 164.54 32.26 163.66 31.92 162.56L33.58 162.16C33.81 162.62 34.3 163.14 35.42 163.14C36.47 163.14 37.24 162.67 37.24 161.51L37.24 160.03L37.14 160.03C36.86 160.6 36.23 161.32 34.88 161.32C33.07 161.32 31.65 160.05 31.65 157.49C31.65 154.9 33.07 153.48 34.89 153.48C36.27 153.48 36.86 154.32 37.14 154.88L37.25 154.88L37.25 153.59L39.07 153.59L39.07 161.56ZM53.31 160.36C52.97 161.02 52.24 161.6 51 161.6C49.51 161.6 48.38 160.78 48.38 159.23C48.38 157.47 49.83 157.01 51.36 156.85C52.74 156.7 53.3 156.67 53.3 156.14L53.3 156.11C53.3 155.34 52.83 154.9 51.97 154.9C51.07 154.9 50.55 155.36 50.36 155.89L48.64 155.65C49.04 154.22 50.31 153.48 51.96 153.48C53.46 153.48 55.15 154.11 55.15 156.18L55.15 161.44L53.37 161.44L53.37 160.36L53.31 160.36ZM60.39 155.05C59.41 155.05 58.72 155.7 58.72 156.84L58.72 161.44L56.88 161.44L56.88 153.59L58.64 153.59L58.64 154.92L58.74 154.92C59.09 154.05 59.9 153.48 61.08 153.48C62.7 153.48 63.77 154.56 63.76 156.44L63.76 161.44L61.92 161.44L61.92 156.72C61.92 155.68 61.34 155.05 60.39 155.05ZM72.4 159.33C72.07 160.7 70.81 161.59 68.99 161.59C66.62 161.59 65.17 160.02 65.17 157.56C65.17 155.14 66.64 153.48 68.89 153.48C70.82 153.48 72.48 154.69 72.48 157.45L72.48 158.02L67.01 158.02C67.02 159.36 67.82 160.15 69.01 160.15C69.81 160.15 70.42 159.8 70.67 159.14L72.4 159.33ZM101.25 157.54C101.25 159.97 99.79 161.59 97.48 161.59C95.18 161.59 93.72 159.97 93.72 157.54C93.72 155.11 95.18 153.48 97.48 153.48C99.79 153.48 101.25 155.11 101.25 157.54ZM21.58 161.44L19.73 161.44L19.73 153.59L21.58 153.59L21.58 161.44ZM45.87 153.59L47.84 153.59L45.05 161.44L43 161.44L40.2 153.59L42.18 153.59L43.98 159.42L44.06 159.42L45.87 153.59ZM73.3 153.59L75.26 153.59L76.84 156.49L78.45 153.59L80.41 153.59L78.04 157.51L80.45 161.44L78.5 161.44L76.84 158.61L75.2 161.44L73.23 161.44L75.63 157.51L73.3 153.59ZM68.91 154.92C67.81 154.92 67.07 155.77 67.01 156.77L70.7 156.77C70.69 155.7 69.98 154.92 68.91 154.92ZM95.6 157.53C95.6 158.97 96.22 160.11 97.49 160.11C98.74 160.11 99.37 158.97 99.37 157.53C99.37 156.1 98.74 154.95 97.49 154.95C96.22 154.95 95.6 156.1 95.6 157.53ZM33.53 157.48C33.53 158.92 34.18 159.87 35.4 159.87C36.58 159.87 37.25 158.97 37.25 157.48C37.25 155.99 36.59 155 35.4 155C34.17 155 33.53 156.05 33.53 157.48ZM88.87 155C87.68 155 87.02 155.99 87.02 157.51C87.02 159.03 87.69 160.06 88.87 160.06C90.09 160.06 90.74 158.98 90.74 157.51C90.74 156.05 90.1 155 88.87 155ZM50.16 159.2C50.16 159.88 50.72 160.24 51.49 160.24C52.6 160.24 53.31 159.49 53.31 158.62L53.31 157.69C53.07 157.89 52.09 158.01 51.61 158.08C50.78 158.2 50.16 158.49 50.16 159.2Z" fill="#000000" fill-opacity="1.000000" fill-rule="evenodd"/>
		</g>
	</g>
	<path id="Vector" d="M76.29 114.42C79.27 114.42 81.69 116.84 81.69 119.83L81.69 121.89L81.68 121.89C81.57 124.22 80.94 127.14 78.32 129.52C75.46 132.13 70.53 133.83 62.27 133.83C54 133.83 49.07 132.13 46.22 129.52C43.6 127.14 42.96 124.22 42.86 121.89L42.84 121.89L42.84 119.83C42.84 116.84 45.26 114.42 48.25 114.42L76.29 114.42Z" fill="#9DB8FF" fill-opacity="1.000000" fill-rule="nonzero"/>
	<path id="Vector" d="M51.81 89.01C49.33 89.01 47.33 91.02 47.33 93.49L47.33 105.45C47.33 107.92 49.33 109.93 51.81 109.93L72.73 109.93C75.2 109.93 77.21 107.92 77.21 105.45L77.21 93.49C77.21 91.02 75.2 89.01 72.73 89.01L63.76 89.01C63.76 89.01 63.76 88.44 63.76 87.51C63.76 86.59 63.09 86.02 62.27 86.02C61.44 86.02 60.77 86.71 60.77 87.51L60.77 89.01L51.81 89.01ZM53.3 99.47C53.3 97.82 54.64 96.48 56.29 96.48C57.94 96.48 59.28 97.82 59.28 99.47C59.28 101.12 57.94 102.46 56.29 102.46C54.64 102.46 53.3 101.12 53.3 99.47ZM65.26 99.47C65.26 97.82 66.59 96.48 68.24 96.48C69.89 96.48 71.23 97.82 71.23 99.47C71.23 101.12 69.89 102.46 68.24 102.46C66.59 102.46 65.26 101.12 65.26 99.47Z" fill="#9DB8FF" fill-opacity="1.000000" fill-rule="nonzero"/>
</svg>
