<svg width="368.000000" height="245.000000" viewBox="0 0 368 245" fill="none" xmlns="http://www.w3.org/2000/svg" xmlns:xlink="http://www.w3.org/1999/xlink">
	<desc>
			Created with Pixso.
	</desc>
	<defs>
		<linearGradient id="paint_linear_238_122_0" x1="70.676193" y1="263.730286" x2="65.597977" y2="122.784653" gradientUnits="userSpaceOnUse">
			<stop stop-color="#0D9AFF" stop-opacity="0.011765"/>
			<stop offset="1.000000" stop-color="#0D9AFF" stop-opacity="0.121569"/>
		</linearGradient>
		<linearGradient id="paint_linear_238_123_0" x1="20.304779" y1="169.483780" x2="143.599579" y2="138.295090" gradientUnits="userSpaceOnUse">
			<stop offset="0.158406" stop-color="#A5BDFF" stop-opacity="0.458824"/>
			<stop offset="1.000000" stop-color="#A5BDFF" stop-opacity="0.000000"/>
		</linearGradient>
		<linearGradient id="paint_linear_238_132_0" x1="300.648743" y1="238.265671" x2="296.789124" y2="131.226547" gradientUnits="userSpaceOnUse">
			<stop stop-color="#0D9AFF" stop-opacity="0.011765"/>
			<stop offset="1.000000" stop-color="#0D9AFF" stop-opacity="0.121569"/>
		</linearGradient>
		<linearGradient id="paint_linear_238_133_0" x1="261.490662" y1="164.204742" x2="357.308929" y2="139.594025" gradientUnits="userSpaceOnUse">
			<stop offset="0.158406" stop-color="#A5BDFF" stop-opacity="0.458824"/>
			<stop offset="1.000000" stop-color="#A5BDFF" stop-opacity="0.000000"/>
		</linearGradient>
		<linearGradient id="paint_linear_238_138_0" x1="192.056290" y1="90.884674" x2="191.138489" y2="35.784657" gradientUnits="userSpaceOnUse">
			<stop stop-color="#0D9AFF" stop-opacity="0.470588"/>
			<stop offset="1.000000" stop-color="#0D9AFF" stop-opacity="0.168627"/>
		</linearGradient>
		<linearGradient id="paint_linear_238_141_0" x1="248.813477" y1="117.597282" x2="248.097504" y2="75.281235" gradientUnits="userSpaceOnUse">
			<stop stop-color="#0F9BFF" stop-opacity="0.380392"/>
			<stop offset="1.000000" stop-color="#0D9AFF" stop-opacity="0.121569"/>
			<stop offset="1.000000" stop-color="#0D9AFF" stop-opacity="0.521569"/>
		</linearGradient>
		<linearGradient id="paint_linear_238_142_0" x1="132.583008" y1="116.251091" x2="131.867004" y2="73.935043" gradientUnits="userSpaceOnUse">
			<stop stop-color="#0F9BFF" stop-opacity="0.380392"/>
			<stop offset="1.000000" stop-color="#0D9AFF" stop-opacity="0.121569"/>
			<stop offset="1.000000" stop-color="#0D9AFF" stop-opacity="0.521569"/>
		</linearGradient>
		<linearGradient id="paint_linear_238_144_0" x1="-21533.953125" y1="-132.000000" x2="-21592.214844" y2="-132.500000" gradientUnits="userSpaceOnUse">
			<stop stop-color="#0146FE"/>
			<stop offset="1.000000" stop-color="#0146FE" stop-opacity="0.000000"/>
		</linearGradient>
		<linearGradient id="paint_linear_238_145_0" x1="21900.777344" y1="-119.500000" x2="21959.039062" y2="-120.000000" gradientUnits="userSpaceOnUse">
			<stop stop-color="#0146FE"/>
			<stop offset="1.000000" stop-color="#0146FE" stop-opacity="0.000000"/>
		</linearGradient>
	</defs>
	<path id="Vector" d="M64.83 193.2L9.97 161.77C7.96 160.61 8.21 158.6 10.53 157.28L68.67 123.88C70.99 122.55 74.51 122.41 76.51 123.56L131.38 155C133.38 156.15 133.14 158.16 130.82 159.49L72.67 192.88C70.35 194.22 66.84 194.36 64.83 193.2Z" fill="url(#paint_linear_238_122_0)" fill-opacity="1.000000" fill-rule="nonzero"/>
	<path id="Vector" d="M68.25 182.88C66.69 182.88 65.17 182.55 64.02 181.89L9.16 150.46C7.78 149.67 7 148.45 7 147.11C7 145.6 7.99 144.17 9.73 143.17L67.88 109.78C70.69 108.16 74.85 108.02 77.35 109.46L132.21 140.89C133.59 141.68 134.38 142.9 134.38 144.24C134.38 145.75 133.38 147.18 131.64 148.17L73.5 181.57C71.99 182.44 70.08 182.88 68.26 182.88L68.25 182.88ZM65.64 179.1C67.15 179.96 70.06 179.81 71.86 178.78L130 145.38C130.82 144.91 131.11 144.44 131.11 144.24C131.11 144.11 130.94 143.9 130.57 143.68L75.71 112.25C74.2 111.39 71.3 111.54 69.49 112.57L11.35 145.97C10.54 146.44 10.24 146.91 10.24 147.11C10.24 147.23 10.41 147.45 10.79 147.67L65.65 179.1L65.64 179.1Z" fill="url(#paint_linear_238_123_0)" fill-opacity="1.000000" fill-rule="evenodd"/>
	<path id="Vector" d="M98.19 118.01C102.4 132.99 93.62 148.67 78.17 152.85C63.08 157.03 47.28 148.32 43.06 132.99C38.85 118.01 47.63 102.34 63.08 98.15C78.17 93.97 93.98 102.68 98.19 118.01Z" fill="#0146FE" fill-opacity="1.000000" fill-rule="nonzero"/>
	<path id="Vector" d="M82.94 116.08L79.83 119.89L76.73 116.08L78.91 116.08L78.91 115.15C78.9 114.42 78.61 113.71 78.09 113.19C77.57 112.67 76.86 112.38 76.13 112.37L75.2 112.37L75.2 110.52L76.13 110.52C77.35 110.52 78.53 111.01 79.4 111.88C80.27 112.75 80.76 113.93 80.76 115.15L80.76 116.08L82.94 116.08ZM64.08 127.2L58.22 127.2C57.81 127.2 57.42 127.03 57.13 126.74C56.84 126.45 56.67 126.06 56.67 125.65L56.67 113.92C56.67 113.51 56.84 113.12 57.13 112.83C57.42 112.54 57.81 112.37 58.22 112.37L69.95 112.37C70.36 112.37 70.75 112.54 71.04 112.83C71.33 113.12 71.49 113.51 71.5 113.92L71.5 119.79L73.35 119.79L73.35 113.92C73.35 113.02 72.99 112.15 72.35 111.52C71.72 110.88 70.85 110.52 69.95 110.52L58.22 110.52C57.32 110.52 56.45 110.88 55.82 111.52C55.18 112.15 54.82 113.02 54.82 113.92L54.82 125.65C54.82 126.55 55.18 127.42 55.82 128.05C56.45 128.69 57.32 129.05 58.22 129.05L64.08 129.05L64.08 127.2ZM67.29 119.87C67.63 119.25 67.9 118.6 68.12 117.93L69.64 117.93L69.64 116.08L65.05 116.08L65.28 115.84L63.32 113.88L62.01 115.19L62.9 116.08L58.53 116.08L58.53 117.93L59.95 117.93C60.47 119.6 61.37 121.14 62.58 122.41C61.56 123.06 60.44 123.54 59.26 123.83L59.71 125.62C61.26 125.25 62.73 124.58 64.03 123.65C64.05 123.66 64.08 123.68 64.1 123.69C64.12 122.79 64.45 121.92 65.03 121.22C65.61 120.53 66.41 120.05 67.29 119.87ZM61.92 117.93L66.15 117.93C65.68 119.17 64.95 120.29 64.02 121.22C63.09 120.29 62.37 119.17 61.92 117.93ZM81.11 140.16L69.29 140.16C68.4 140.16 67.55 139.81 66.92 139.18C66.29 138.55 65.94 137.7 65.94 136.82L65.94 124.99C65.94 124.1 66.29 123.25 66.92 122.62C67.55 121.99 68.4 121.64 69.29 121.64L81.11 121.64C82 121.64 82.85 121.99 83.48 122.62C84.11 123.25 84.46 124.1 84.46 124.99L84.46 136.82C84.46 137.7 84.11 138.55 83.48 139.18C82.85 139.81 82 140.16 81.11 140.16ZM69.29 123.49C68.89 123.49 68.51 123.65 68.23 123.93C67.95 124.21 67.79 124.59 67.79 124.99L67.79 136.82C67.79 137.21 67.95 137.59 68.23 137.87C68.51 138.15 68.89 138.31 69.29 138.31L81.11 138.31C81.51 138.31 81.89 138.15 82.17 137.87C82.45 137.59 82.61 137.21 82.61 136.82L82.61 124.99C82.61 124.59 82.45 124.21 82.17 123.93C81.89 123.65 81.51 123.49 81.11 123.49L69.29 123.49ZM79.18 136.35L80.85 135.53L75.2 123.97L69.55 135.53L71.22 136.35L72.07 134.61L78.33 134.61L79.18 136.35ZM72.97 132.75L75.2 128.2L77.43 132.75L72.97 132.75ZM64.08 138.31L64.08 140.16L63.16 140.16C61.93 140.16 60.75 139.67 59.88 138.81C59.02 137.94 58.53 136.76 58.53 135.53L58.53 134.61L56.35 134.61L59.45 130.79L62.56 134.61L60.38 134.61L60.38 135.53C60.38 136.27 60.67 136.98 61.19 137.5C61.71 138.02 62.42 138.31 63.16 138.31L64.08 138.31Z" fill="#FFFFFF" fill-opacity="1.000000" fill-rule="nonzero"/>
	<path id="Vector" d="M296.1 184.32L255.17 160.86C252.65 159.42 252.97 156.91 255.87 155.25L295.39 132.6C298.29 130.94 302.68 130.75 305.19 132.2L346.12 155.66C348.64 157.09 348.31 159.61 345.42 161.27L305.9 183.92C302.99 185.58 298.6 185.77 296.1 184.32Z" fill="url(#paint_linear_238_132_0)" fill-opacity="1.000000" fill-rule="nonzero"/>
	<path id="Vector" d="M300.38 174.77C298.38 174.77 296.46 174.35 294.94 173.48L254 150.02C252.19 148.98 251.15 147.36 251.15 145.58C251.15 143.59 252.44 141.71 254.7 140.4L294.23 117.75C297.88 115.66 303.1 115.48 306.35 117.35L347.28 140.81C349.1 141.85 350.14 143.47 350.14 145.25C350.14 147.24 348.85 149.13 346.58 150.43L307.06 173.08C305.1 174.21 302.68 174.77 300.37 174.77L300.38 174.77ZM297.26 169.49C299.07 170.52 302.57 170.33 304.74 169.09L344.26 146.44C345.25 145.87 345.49 145.36 345.49 145.26C345.48 145.24 345.35 145.05 344.96 144.83L304.02 121.37C302.22 120.33 298.73 120.52 296.55 121.77L257.03 144.41C256.03 144.98 255.8 145.5 255.8 145.59C255.81 145.61 255.94 145.81 256.33 146.03L297.26 169.49Z" fill="url(#paint_linear_238_133_0)" fill-opacity="1.000000" fill-rule="evenodd"/>
	<path id="Vector" d="M300.54 125.46C306.02 125.46 310.45 121.06 310.45 115.63C310.45 110.2 306.02 105.8 300.54 105.8C295.07 105.8 290.63 110.2 290.63 115.63C290.63 121.06 295.07 125.46 300.54 125.46ZM307.48 127.92L306.19 127.92C304.47 128.71 302.56 129.15 300.54 129.15C298.53 129.15 296.62 128.71 294.9 127.92L293.6 127.92C287.86 127.92 283.2 132.55 283.2 138.25L283.2 141.44C283.2 143.48 284.86 145.13 286.92 145.13L314.17 145.13C316.22 145.13 317.89 143.48 317.89 141.44L317.89 138.25C317.89 132.55 313.23 127.92 307.48 127.92Z" fill="#9DB8FF" fill-opacity="1.000000" fill-rule="nonzero"/>
	<g opacity="0.000000">
		<path id="Vector" d="M175.22 33L208.88 33L208.88 66.4L175.22 66.4L175.22 33Z" fill="#FFFFFF" fill-opacity="1.000000" fill-rule="nonzero"/>
	</g>
	<path id="Vector" d="M202.91 43.2L196.68 36.24C196.55 36.1 196.39 35.98 196.21 35.9C196.03 35.82 195.84 35.78 195.64 35.78L184.42 35.78C183.95 35.77 183.49 35.86 183.06 36.03C182.63 36.2 182.23 36.46 181.9 36.78C181.57 37.1 181.3 37.49 181.12 37.91C180.93 38.34 180.83 38.8 180.83 39.26L180.83 60.14C180.83 60.6 180.93 61.06 181.12 61.48C181.3 61.91 181.57 62.29 181.9 62.61C182.23 62.94 182.63 63.19 183.06 63.36C183.49 63.54 183.95 63.62 184.42 63.62L199.68 63.62C200.15 63.62 200.61 63.54 201.04 63.36C201.48 63.19 201.87 62.94 202.2 62.61C202.54 62.29 202.8 61.91 202.99 61.48C203.17 61.06 203.27 60.6 203.27 60.14L203.27 44.13C203.27 43.79 203.14 43.45 202.91 43.2ZM194.86 38.56L200.1 44.13L195.9 44.13C195.75 44.12 195.6 44.08 195.47 44.02C195.34 43.96 195.22 43.87 195.13 43.76C195.03 43.64 194.96 43.52 194.91 43.38C194.86 43.24 194.85 43.09 194.86 42.95L194.86 38.56Z" fill="url(#paint_linear_238_138_0)" fill-opacity="1.000000" fill-rule="nonzero"/>
	<g opacity="0.000000">
		<path id="Vector" d="M231.98 79.28L265.64 79.28L265.64 112.69L231.98 112.69L231.98 79.28Z" fill="#FFFFFF" fill-opacity="1.000000" fill-rule="nonzero"/>
	</g>
	<path id="Vector" d="M257.28 80.97L252.42 75.63C252.32 75.52 252.19 75.43 252.05 75.37C251.91 75.31 251.76 75.28 251.61 75.28L242.86 75.28C242.49 75.27 242.13 75.34 241.79 75.47C241.46 75.6 241.15 75.8 240.89 76.05C240.63 76.29 240.42 76.59 240.28 76.92C240.14 77.24 240.06 77.59 240.06 77.95L240.06 93.98C240.06 94.34 240.14 94.69 240.28 95.01C240.42 95.34 240.63 95.64 240.89 95.88C241.15 96.13 241.46 96.33 241.79 96.46C242.13 96.59 242.49 96.66 242.86 96.65L254.76 96.65C255.12 96.66 255.49 96.59 255.82 96.46C256.16 96.33 256.47 96.13 256.73 95.88C256.99 95.64 257.2 95.34 257.34 95.01C257.48 94.69 257.56 94.34 257.56 93.98L257.56 81.69C257.56 81.42 257.46 81.17 257.28 80.97ZM251 77.41L255.09 81.69L251.81 81.69C251.69 81.68 251.58 81.65 251.48 81.6C251.37 81.56 251.28 81.49 251.21 81.4C251.13 81.32 251.07 81.22 251.04 81.11C251 81.01 250.99 80.89 251 80.78L251 77.41Z" fill="url(#paint_linear_238_141_0)" fill-opacity="1.000000" fill-rule="nonzero"/>
	<path id="Vector" d="M141.05 79.63L136.19 74.28C136.09 74.17 135.96 74.08 135.82 74.02C135.68 73.96 135.53 73.93 135.38 73.93L126.63 73.93C126.26 73.93 125.9 73.99 125.56 74.12C125.23 74.26 124.92 74.45 124.66 74.7C124.4 74.95 124.19 75.24 124.05 75.57C123.91 75.9 123.83 76.25 123.83 76.6L123.83 92.64C123.83 92.99 123.91 93.34 124.05 93.67C124.19 93.99 124.4 94.29 124.66 94.54C124.92 94.79 125.23 94.98 125.56 95.11C125.9 95.25 126.26 95.31 126.63 95.31L138.53 95.31C138.89 95.31 139.25 95.25 139.59 95.11C139.93 94.98 140.24 94.79 140.5 94.54C140.76 94.29 140.97 93.99 141.11 93.67C141.25 93.34 141.33 92.99 141.33 92.64L141.33 80.34C141.33 80.08 141.23 79.82 141.05 79.63ZM134.77 76.07L138.86 80.34L135.58 80.34C135.46 80.34 135.35 80.31 135.25 80.26C135.14 80.21 135.05 80.14 134.98 80.06C134.9 79.97 134.84 79.87 134.81 79.77C134.77 79.66 134.76 79.55 134.77 79.43L134.77 76.07Z" fill="url(#paint_linear_238_142_0)" fill-opacity="1.000000" fill-rule="nonzero"/>
	<path id="Arrow 2" d="M208.21 135.87L204.26 131.84C203.87 131.43 203.87 130.81 204.28 130.41C204.68 130.02 205.31 130.03 205.7 130.43L211.35 136.2C211.75 136.6 211.74 137.23 211.34 137.63L205.59 143.25C205.19 143.65 204.56 143.64 204.17 143.24C203.77 142.83 203.78 142.21 204.18 141.81L208.19 137.88L156.21 137.24L156.23 135.23L208.21 135.87Z" fill="url(#paint_linear_238_144_0)" fill-opacity="1.000000" fill-rule="evenodd"/>
	<path id="Arrow 3" d="M158.64 150.65L162.59 146.62C162.99 146.22 162.98 145.59 162.58 145.2C162.18 144.81 161.55 144.81 161.15 145.22L155.5 150.99C155.11 151.39 155.11 152.02 155.51 152.41L161.26 158.04C161.66 158.44 162.29 158.43 162.69 158.03C163.08 157.62 163.08 156.99 162.67 156.6L158.66 152.67L210.64 152.02L210.63 150.01L158.64 150.65Z" fill="url(#paint_linear_238_145_0)" fill-opacity="1.000000" fill-rule="evenodd"/>
</svg>
